<mxfile host="Electron" agent="Mozilla/5.0 (Windows NT 10.0; Win64; x64) AppleWebKit/537.36 (KHTML, like Gecko) draw.io/26.2.2 Chrome/134.0.6998.178 Electron/35.1.2 Safari/537.36" version="26.2.2">
  <diagram name="Page-1" id="FYSc9ngdgIepx8b7xkgD">
    <mxGraphModel dx="774" dy="501" grid="1" gridSize="10" guides="1" tooltips="1" connect="1" arrows="1" fold="1" page="1" pageScale="1" pageWidth="850" pageHeight="1100" math="0" shadow="0">
      <root>
        <mxCell id="0" />
        <mxCell id="1" parent="0" />
        <mxCell id="0IMba-IwnC_JT5XH4qNv-21" value="" style="rounded=0;whiteSpace=wrap;html=1;" vertex="1" parent="1">
          <mxGeometry x="140" y="90" width="510" height="560" as="geometry" />
        </mxCell>
        <mxCell id="0IMba-IwnC_JT5XH4qNv-1" value="Admin" style="rounded=0;whiteSpace=wrap;html=1;" vertex="1" parent="1">
          <mxGeometry x="170" y="110" width="120" height="40" as="geometry" />
        </mxCell>
        <mxCell id="0IMba-IwnC_JT5XH4qNv-8" style="edgeStyle=orthogonalEdgeStyle;rounded=0;orthogonalLoop=1;jettySize=auto;html=1;exitX=0.5;exitY=1;exitDx=0;exitDy=0;entryX=0.5;entryY=0;entryDx=0;entryDy=0;" edge="1" parent="1" source="0IMba-IwnC_JT5XH4qNv-2" target="0IMba-IwnC_JT5XH4qNv-5">
          <mxGeometry relative="1" as="geometry" />
        </mxCell>
        <mxCell id="0IMba-IwnC_JT5XH4qNv-2" value="Customer&amp;nbsp;" style="rounded=0;whiteSpace=wrap;html=1;" vertex="1" parent="1">
          <mxGeometry x="450" y="110" width="120" height="40" as="geometry" />
        </mxCell>
        <mxCell id="0IMba-IwnC_JT5XH4qNv-3" value="input" style="ellipse;whiteSpace=wrap;html=1;" vertex="1" parent="1">
          <mxGeometry x="160" y="220" width="120" height="50" as="geometry" />
        </mxCell>
        <mxCell id="0IMba-IwnC_JT5XH4qNv-4" value="Naadbramha - Sales &amp;amp; Attendance System" style="rounded=0;whiteSpace=wrap;html=1;" vertex="1" parent="1">
          <mxGeometry x="180" y="300" width="390" height="40" as="geometry" />
        </mxCell>
        <mxCell id="0IMba-IwnC_JT5XH4qNv-5" value="order deatails" style="ellipse;whiteSpace=wrap;html=1;" vertex="1" parent="1">
          <mxGeometry x="450" y="210" width="120" height="50" as="geometry" />
        </mxCell>
        <mxCell id="0IMba-IwnC_JT5XH4qNv-6" style="edgeStyle=orthogonalEdgeStyle;rounded=0;orthogonalLoop=1;jettySize=auto;html=1;exitX=0.5;exitY=1;exitDx=0;exitDy=0;entryX=0.583;entryY=0.047;entryDx=0;entryDy=0;entryPerimeter=0;" edge="1" parent="1" source="0IMba-IwnC_JT5XH4qNv-1" target="0IMba-IwnC_JT5XH4qNv-3">
          <mxGeometry relative="1" as="geometry" />
        </mxCell>
        <mxCell id="0IMba-IwnC_JT5XH4qNv-7" style="edgeStyle=orthogonalEdgeStyle;rounded=0;orthogonalLoop=1;jettySize=auto;html=1;exitX=0.5;exitY=1;exitDx=0;exitDy=0;entryX=0.103;entryY=0;entryDx=0;entryDy=0;entryPerimeter=0;" edge="1" parent="1" source="0IMba-IwnC_JT5XH4qNv-3" target="0IMba-IwnC_JT5XH4qNv-4">
          <mxGeometry relative="1" as="geometry" />
        </mxCell>
        <mxCell id="0IMba-IwnC_JT5XH4qNv-9" style="edgeStyle=orthogonalEdgeStyle;rounded=0;orthogonalLoop=1;jettySize=auto;html=1;exitX=0.5;exitY=1;exitDx=0;exitDy=0;entryX=0.844;entryY=-0.02;entryDx=0;entryDy=0;entryPerimeter=0;" edge="1" parent="1" source="0IMba-IwnC_JT5XH4qNv-5" target="0IMba-IwnC_JT5XH4qNv-4">
          <mxGeometry relative="1" as="geometry" />
        </mxCell>
        <mxCell id="0IMba-IwnC_JT5XH4qNv-10" value="Database" style="rounded=0;whiteSpace=wrap;html=1;" vertex="1" parent="1">
          <mxGeometry x="160" y="540" width="120" height="40" as="geometry" />
        </mxCell>
        <mxCell id="0IMba-IwnC_JT5XH4qNv-11" value="Staff&amp;nbsp;" style="rounded=0;whiteSpace=wrap;html=1;" vertex="1" parent="1">
          <mxGeometry x="460" y="540" width="120" height="40" as="geometry" />
        </mxCell>
        <mxCell id="0IMba-IwnC_JT5XH4qNv-12" value="Reports, Salary Info" style="ellipse;whiteSpace=wrap;html=1;" vertex="1" parent="1">
          <mxGeometry x="160" y="420" width="160" height="50" as="geometry" />
        </mxCell>
        <mxCell id="0IMba-IwnC_JT5XH4qNv-13" value="Invoice, Receipt" style="ellipse;whiteSpace=wrap;html=1;" vertex="1" parent="1">
          <mxGeometry x="430" y="420" width="160" height="50" as="geometry" />
        </mxCell>
        <mxCell id="0IMba-IwnC_JT5XH4qNv-14" value="" style="endArrow=classic;startArrow=classic;html=1;rounded=0;exitX=1;exitY=0.5;exitDx=0;exitDy=0;entryX=0;entryY=0.5;entryDx=0;entryDy=0;" edge="1" parent="1" source="0IMba-IwnC_JT5XH4qNv-10" target="0IMba-IwnC_JT5XH4qNv-11">
          <mxGeometry width="50" height="50" relative="1" as="geometry">
            <mxPoint x="370" y="350" as="sourcePoint" />
            <mxPoint x="420" y="300" as="targetPoint" />
            <Array as="points">
              <mxPoint x="380" y="560" />
            </Array>
          </mxGeometry>
        </mxCell>
        <mxCell id="0IMba-IwnC_JT5XH4qNv-16" value="Invoice, Receipt" style="endArrow=classic;html=1;rounded=0;entryX=0.5;entryY=0;entryDx=0;entryDy=0;exitX=0.157;exitY=1.008;exitDx=0;exitDy=0;exitPerimeter=0;" edge="1" parent="1">
          <mxGeometry width="50" height="50" relative="1" as="geometry">
            <mxPoint x="240.61" y="340.00000000000006" as="sourcePoint" />
            <mxPoint x="239.38" y="419.68" as="targetPoint" />
          </mxGeometry>
        </mxCell>
        <mxCell id="0IMba-IwnC_JT5XH4qNv-17" value="Invoice, Receipt" style="endArrow=classic;html=1;rounded=0;entryX=0.5;entryY=0;entryDx=0;entryDy=0;" edge="1" parent="1" target="0IMba-IwnC_JT5XH4qNv-13">
          <mxGeometry x="0.224" y="80" width="50" height="50" relative="1" as="geometry">
            <mxPoint x="510" y="340" as="sourcePoint" />
            <mxPoint x="509.38" y="409.68" as="targetPoint" />
            <mxPoint as="offset" />
          </mxGeometry>
        </mxCell>
        <mxCell id="0IMba-IwnC_JT5XH4qNv-19" style="edgeStyle=orthogonalEdgeStyle;rounded=0;orthogonalLoop=1;jettySize=auto;html=1;entryX=0.667;entryY=0.25;entryDx=0;entryDy=0;entryPerimeter=0;" edge="1" parent="1" source="0IMba-IwnC_JT5XH4qNv-12" target="0IMba-IwnC_JT5XH4qNv-10">
          <mxGeometry relative="1" as="geometry" />
        </mxCell>
        <mxCell id="0IMba-IwnC_JT5XH4qNv-20" style="edgeStyle=orthogonalEdgeStyle;rounded=0;orthogonalLoop=1;jettySize=auto;html=1;exitX=0.5;exitY=1;exitDx=0;exitDy=0;entryX=0.417;entryY=-0.025;entryDx=0;entryDy=0;entryPerimeter=0;" edge="1" parent="1" source="0IMba-IwnC_JT5XH4qNv-13" target="0IMba-IwnC_JT5XH4qNv-11">
          <mxGeometry relative="1" as="geometry" />
        </mxCell>
        <mxCell id="0IMba-IwnC_JT5XH4qNv-22" value="&lt;b&gt;&lt;font style=&quot;font-size: 18px;&quot;&gt;ZERO LEVEL DFD DIAGRAM&lt;/font&gt;&lt;/b&gt;" style="rounded=0;whiteSpace=wrap;html=1;" vertex="1" parent="1">
          <mxGeometry x="155" y="610" width="480" height="30" as="geometry" />
        </mxCell>
      </root>
    </mxGraphModel>
  </diagram>
</mxfile>
